REM GoldWave
FILE "Зазнобин В.М. В чём суть реформы образования (3 сентября 2016 г.).m4a" BINARY
  TRACK 01 AUDIO
    TITLE "00:00:00.00000"
    INDEX 01 00:00:00
  TRACK 02 AUDIO
    TITLE "00:00:13.28961"
    INDEX 01 00:13:22
  TRACK 03 AUDIO
    TITLE "00:00:25.97508"
    INDEX 01 00:25:73
  TRACK 04 AUDIO
    TITLE "00:00:40.34862"
    INDEX 01 00:40:26
  TRACK 05 AUDIO
    TITLE "00:00:53.27231"
    INDEX 01 00:53:20
  TRACK 06 AUDIO
    TITLE "00:01:06.65900"
    INDEX 01 01:06:49
  TRACK 07 AUDIO
    TITLE "00:01:20.51893"
    INDEX 01 01:20:39
  TRACK 08 AUDIO
    TITLE "00:01:33.71755"
    INDEX 01 01:33:54
  TRACK 09 AUDIO
    TITLE "00:01:48.35578"
    INDEX 01 01:48:27
  TRACK 10 AUDIO
    TITLE "00:02:03.81045"
    INDEX 01 02:03:61
  TRACK 11 AUDIO
    TITLE "00:02:16.51728"
    INDEX 01 02:16:39
  TRACK 12 AUDIO
    TITLE "00:02:28.92642"
    INDEX 01 02:28:69
  TRACK 13 AUDIO
    TITLE "00:02:41.72052"
    INDEX 01 02:41:54
  TRACK 14 AUDIO
    TITLE "00:02:54.33957"
    INDEX 01 02:54:25
  TRACK 15 AUDIO
    TITLE "00:03:06.97209"
    INDEX 01 03:06:73
  TRACK 16 AUDIO
    TITLE "00:03:21.68603"
    INDEX 01 03:21:51
  TRACK 17 AUDIO
    TITLE "00:03:34.39748"
    INDEX 01 03:34:30
  TRACK 18 AUDIO
    TITLE "00:03:50.38948"
    INDEX 01 03:50:29
  TRACK 19 AUDIO
    TITLE "00:04:05.12059"
    INDEX 01 04:05:09
  TRACK 20 AUDIO
    TITLE "00:04:18.57091"
    INDEX 01 04:18:43
  TRACK 21 AUDIO
    TITLE "00:04:30.96009"
    INDEX 01 04:30:72
  TRACK 22 AUDIO
    TITLE "00:04:45.35964"
    INDEX 01 04:45:27
  TRACK 23 AUDIO
    TITLE "00:05:00.60392"
    INDEX 01 05:00:45
  TRACK 24 AUDIO
    TITLE "00:05:13.27823"
    INDEX 01 05:13:21
  TRACK 25 AUDIO
    TITLE "00:05:27.97825"
    INDEX 01 05:27:73
  TRACK 26 AUDIO
    TITLE "00:05:41.89156"
    INDEX 01 05:41:67
  TRACK 27 AUDIO
    TITLE "00:05:57.78789"
    INDEX 01 05:57:59
  TRACK 28 AUDIO
    TITLE "00:06:10.42689"
    INDEX 01 06:10:32
  TRACK 29 AUDIO
    TITLE "00:06:25.09626"
    INDEX 01 06:25:07
  TRACK 30 AUDIO
    TITLE "00:06:42.63469"
    INDEX 01 06:42:48
  TRACK 31 AUDIO
    TITLE "00:06:56.48902"
    INDEX 01 06:56:37
  TRACK 32 AUDIO
    TITLE "00:07:09.38020"
    INDEX 01 07:09:29
  TRACK 33 AUDIO
    TITLE "00:07:22.50127"
    INDEX 01 07:22:38
  TRACK 34 AUDIO
    TITLE "00:07:34.91692"
    INDEX 01 07:34:69
  TRACK 35 AUDIO
    TITLE "00:07:49.99680"
    INDEX 01 07:50:00
  TRACK 36 AUDIO
    TITLE "00:08:03.15408"
    INDEX 01 08:03:12
  TRACK 37 AUDIO
    TITLE "00:08:17.78583"
    INDEX 01 08:17:59
  TRACK 38 AUDIO
    TITLE "00:08:31.65272"
    INDEX 01 08:31:49
  TRACK 39 AUDIO
    TITLE "00:08:44.74916"
    INDEX 01 08:44:56
  TRACK 40 AUDIO
    TITLE "00:08:59.23231"
    INDEX 01 08:59:17
  TRACK 41 AUDIO
    TITLE "00:09:11.55739"
    INDEX 01 09:11:42
  TRACK 42 AUDIO
    TITLE "00:09:24.50848"
    INDEX 01 09:24:38
  TRACK 43 AUDIO
    TITLE "00:09:38.03218"
    INDEX 01 09:38:02
  TRACK 44 AUDIO
    TITLE "00:09:51.27955"
    INDEX 01 09:51:21
  TRACK 45 AUDIO
    TITLE "00:10:05.19009"
    INDEX 01 10:05:14
  TRACK 46 AUDIO
    TITLE "00:10:18.49272"
    INDEX 01 10:18:37
  TRACK 47 AUDIO
    TITLE "00:10:32.20635"
    INDEX 01 10:32:15
  TRACK 48 AUDIO
    TITLE "00:10:45.43190"
    INDEX 01 10:45:32
  TRACK 49 AUDIO
    TITLE "00:10:58.66118"
    INDEX 01 10:58:50
  TRACK 50 AUDIO
    TITLE "00:11:13.84787"
    INDEX 01 11:13:64
  TRACK 51 AUDIO
    TITLE "00:11:27.52853"
    INDEX 01 11:27:40
  TRACK 52 AUDIO
    TITLE "00:11:44.03553"
    INDEX 01 11:44:03
  TRACK 53 AUDIO
    TITLE "00:11:57.64329"
    INDEX 01 11:57:48
  TRACK 54 AUDIO
    TITLE "00:12:11.52735"
    INDEX 01 12:11:40
  TRACK 55 AUDIO
    TITLE "00:12:25.14810"
    INDEX 01 12:25:11
  TRACK 56 AUDIO
    TITLE "00:12:39.97907"
    INDEX 01 12:39:73
  TRACK 57 AUDIO
    TITLE "00:12:53.54689"
    INDEX 01 12:53:41
  TRACK 58 AUDIO
    TITLE "00:13:07.16995"
    INDEX 01 13:07:13
  TRACK 59 AUDIO
    TITLE "00:13:20.27803"
    INDEX 01 13:20:21
  TRACK 60 AUDIO
    TITLE "00:13:32.91238"
    INDEX 01 13:32:68
  TRACK 61 AUDIO
    TITLE "00:13:46.44723"
    INDEX 01 13:46:34
  TRACK 62 AUDIO
    TITLE "00:14:00.05916"
    INDEX 01 14:00:04
  TRACK 63 AUDIO
    TITLE "00:14:12.77571"
    INDEX 01 14:12:58
  TRACK 64 AUDIO
    TITLE "00:14:27.31971"
    INDEX 01 14:27:24
  TRACK 65 AUDIO
    TITLE "00:14:42.46415"
    INDEX 01 14:42:35
  TRACK 66 AUDIO
    TITLE "00:14:55.67345"
    INDEX 01 14:55:51
  TRACK 67 AUDIO
    TITLE "00:15:10.39669"
    INDEX 01 15:10:30
  TRACK 68 AUDIO
    TITLE "00:15:24.37966"
    INDEX 01 15:24:28
  TRACK 69 AUDIO
    TITLE "00:15:39.16884"
    INDEX 01 15:39:13
  TRACK 70 AUDIO
    TITLE "00:15:53.19177"
    INDEX 01 15:53:14
  TRACK 71 AUDIO
    TITLE "00:16:08.29395"
    INDEX 01 16:08:22
  TRACK 72 AUDIO
    TITLE "00:16:24.17215"
    INDEX 01 16:24:13
  TRACK 73 AUDIO
    TITLE "00:16:39.26086"
    INDEX 01 16:39:20
  TRACK 74 AUDIO
    TITLE "00:16:52.55794"
    INDEX 01 16:52:42
  TRACK 75 AUDIO
    TITLE "00:17:06.28272"
    INDEX 01 17:06:21
  TRACK 76 AUDIO
    TITLE "00:17:21.36585"
    INDEX 01 17:21:27
  TRACK 77 AUDIO
    TITLE "00:17:34.05549"
    INDEX 01 17:34:04
  TRACK 78 AUDIO
    TITLE "00:17:48.90875"
    INDEX 01 17:48:68
  TRACK 79 AUDIO
    TITLE "00:18:04.15259"
    INDEX 01 18:04:11
  TRACK 80 AUDIO
    TITLE "00:18:18.88465"
    INDEX 01 18:18:66
  TRACK 81 AUDIO
    TITLE "00:18:33.84751"
    INDEX 01 18:33:64
  TRACK 82 AUDIO
    TITLE "00:18:49.71317"
    INDEX 01 18:49:53
  TRACK 83 AUDIO
    TITLE "00:19:04.72712"
    INDEX 01 19:04:55
  TRACK 84 AUDIO
    TITLE "00:19:17.92760"
    INDEX 01 19:17:70
  TRACK 85 AUDIO
    TITLE "00:19:30.80299"
    INDEX 01 19:30:60
  TRACK 86 AUDIO
    TITLE "00:19:44.83984"
    INDEX 01 19:44:63
  TRACK 87 AUDIO
    TITLE "00:20:01.63245"
    INDEX 01 20:01:47
  TRACK 88 AUDIO
    TITLE "00:20:16.47363"
    INDEX 01 20:16:36
  TRACK 89 AUDIO
    TITLE "00:20:30.25181"
    INDEX 01 20:30:19
  TRACK 90 AUDIO
    TITLE "00:20:43.68914"
    INDEX 01 20:43:52
  TRACK 91 AUDIO
    TITLE "00:20:56.24408"
    INDEX 01 20:56:18
  TRACK 92 AUDIO
    TITLE "00:21:09.62195"
    INDEX 01 21:09:47
  TRACK 93 AUDIO
    TITLE "00:21:22.15694"
    INDEX 01 21:22:12
  TRACK 94 AUDIO
    TITLE "00:21:35.56175"
    INDEX 01 21:35:42
  TRACK 95 AUDIO
    TITLE "00:21:48.84862"
    INDEX 01 21:48:64
  TRACK 96 AUDIO
    TITLE "00:22:02.63098"
    INDEX 01 22:02:47
  TRACK 97 AUDIO
    TITLE "00:22:17.16333"
    INDEX 01 22:17:12
  TRACK 98 AUDIO
    TITLE "00:22:29.82837"
    INDEX 01 22:29:62
  TRACK 99 AUDIO
    TITLE "00:22:42.17109"
    INDEX 01 22:42:13
  TRACK 100 AUDIO
    TITLE "00:22:55.87404"
    INDEX 01 22:55:66
  TRACK 101 AUDIO
    TITLE "00:23:09.49943"
    INDEX 01 23:09:37
  TRACK 102 AUDIO
    TITLE "00:23:21.99912"
    INDEX 01 23:22:00
  TRACK 103 AUDIO
    TITLE "00:23:34.95254"
    INDEX 01 23:34:71
  TRACK 104 AUDIO
    TITLE "00:23:48.20873"
    INDEX 01 23:48:16
  TRACK 105 AUDIO
    TITLE "00:24:01.50209"
    INDEX 01 24:01:38
  TRACK 106 AUDIO
    TITLE "00:24:13.88011"
    INDEX 01 24:13:66
  TRACK 107 AUDIO
    TITLE "00:24:26.24281"
    INDEX 01 24:26:18
  TRACK 108 AUDIO
    TITLE "00:24:38.80240"
    INDEX 01 24:38:60
  TRACK 109 AUDIO
    TITLE "00:24:55.40553"
    INDEX 01 24:55:30
  TRACK 110 AUDIO
    TITLE "00:25:13.46594"
    INDEX 01 25:13:35
  TRACK 111 AUDIO
    TITLE "00:25:29.21642"
    INDEX 01 25:29:16
  TRACK 112 AUDIO
    TITLE "00:25:42.09878"
    INDEX 01 25:42:07
  TRACK 113 AUDIO
    TITLE "00:25:54.68485"
    INDEX 01 25:54:51
  TRACK 114 AUDIO
    TITLE "00:26:08.14912"
    INDEX 01 26:08:11
  TRACK 115 AUDIO
    TITLE "00:26:21.20608"
    INDEX 01 26:21:15
  TRACK 116 AUDIO
    TITLE "00:26:33.92451"
    INDEX 01 26:33:69
  TRACK 117 AUDIO
    TITLE "00:26:46.64340"
    INDEX 01 26:46:48
  TRACK 118 AUDIO
    TITLE "00:26:59.32002"
    INDEX 01 26:59:24
  TRACK 119 AUDIO
    TITLE "00:27:11.78211"
    INDEX 01 27:11:59
  TRACK 120 AUDIO
    TITLE "00:27:26.59728"
    INDEX 01 27:26:45
  TRACK 121 AUDIO
    TITLE "00:27:39.78522"
    INDEX 01 27:39:59
  TRACK 122 AUDIO
    TITLE "00:27:53.82161"
    INDEX 01 27:53:62
  TRACK 123 AUDIO
    TITLE "00:28:08.37626"
    INDEX 01 28:08:28
  TRACK 124 AUDIO
    TITLE "00:28:22.14982"
    INDEX 01 28:22:11
  TRACK 125 AUDIO
    TITLE "00:28:35.80399"
    INDEX 01 28:35:60
  TRACK 126 AUDIO
    TITLE "00:28:49.88916"
    INDEX 01 28:49:67
  TRACK 127 AUDIO
    TITLE "00:29:03.41052"
    INDEX 01 29:03:31
  TRACK 128 AUDIO
    TITLE "00:29:18.38918"
    INDEX 01 29:18:29
  TRACK 129 AUDIO
    TITLE "00:29:33.05621"
    INDEX 01 29:33:04
  TRACK 130 AUDIO
    TITLE "00:29:46.49122"
    INDEX 01 29:46:37
  TRACK 131 AUDIO
    TITLE "00:29:59.39122"
    INDEX 01 29:59:29
  TRACK 132 AUDIO
    TITLE "00:30:14.08054"
    INDEX 01 30:14:06
  TRACK 133 AUDIO
    TITLE "00:30:26.80363"
    INDEX 01 30:26:60
  TRACK 134 AUDIO
    TITLE "00:30:41.38243"
    INDEX 01 30:41:29
  TRACK 135 AUDIO
    TITLE "00:30:57.02937"
    INDEX 01 30:57:02
  TRACK 136 AUDIO
    TITLE "00:31:11.95460"
    INDEX 01 31:11:72
  TRACK 137 AUDIO
    TITLE "00:31:25.52288"
    INDEX 01 31:25:39
  TRACK 138 AUDIO
    TITLE "00:31:38.56406"
    INDEX 01 31:38:42
  TRACK 139 AUDIO
    TITLE "00:31:51.54812"
    INDEX 01 31:51:41
  TRACK 140 AUDIO
    TITLE "00:32:05.85247"
    INDEX 01 32:05:64
  TRACK 141 AUDIO
    TITLE "00:32:19.34551"
    INDEX 01 32:19:26
  TRACK 142 AUDIO
    TITLE "00:32:33.60528"
    INDEX 01 32:33:45
  TRACK 143 AUDIO
    TITLE "00:32:48.77667"
    INDEX 01 32:48:58
  TRACK 144 AUDIO
    TITLE "00:33:03.85934"
    INDEX 01 33:03:64
  TRACK 145 AUDIO
    TITLE "00:33:16.55780"
    INDEX 01 33:16:42
  TRACK 146 AUDIO
    TITLE "00:33:29.73460"
    INDEX 01 33:29:55
  TRACK 147 AUDIO
    TITLE "00:33:43.78213"
    INDEX 01 33:43:59
  TRACK 148 AUDIO
    TITLE "00:33:57.07594"
    INDEX 01 33:57:06
  TRACK 149 AUDIO
    TITLE "00:34:14.17596"
    INDEX 01 34:14:13
  TRACK 150 AUDIO
    TITLE "00:34:28.56855"
    INDEX 01 34:28:43
  TRACK 151 AUDIO
    TITLE "00:34:43.10324"
    INDEX 01 34:43:08
  TRACK 152 AUDIO
    TITLE "00:34:58.65404"
    INDEX 01 34:58:49
  TRACK 153 AUDIO
    TITLE "00:35:12.49168"
    INDEX 01 35:12:37
  TRACK 154 AUDIO
    TITLE "00:35:25.00900"
    INDEX 01 35:25:01
  TRACK 155 AUDIO
    TITLE "00:35:38.91304"
    INDEX 01 35:38:68
  TRACK 156 AUDIO
    TITLE "00:35:52.14045"
    INDEX 01 35:52:11
  TRACK 157 AUDIO
    TITLE "00:36:06.65565"
    INDEX 01 36:06:49
  TRACK 158 AUDIO
    TITLE "00:36:20.79374"
    INDEX 01 36:20:60
  TRACK 159 AUDIO
    TITLE "00:36:34.97642"
    INDEX 01 36:34:73
  TRACK 160 AUDIO
    TITLE "00:36:48.35846"
    INDEX 01 36:48:27
  TRACK 161 AUDIO
    TITLE "00:37:01.10336"
    INDEX 01 37:01:08
  TRACK 162 AUDIO
    TITLE "00:37:14.72644"
    INDEX 01 37:14:54
  TRACK 163 AUDIO
    TITLE "00:37:28.75912"
    INDEX 01 37:28:57
  TRACK 164 AUDIO
    TITLE "00:37:42.40912"
    INDEX 01 37:42:31
  TRACK 165 AUDIO
    TITLE "00:37:57.64179"
    INDEX 01 37:57:48
  TRACK 166 AUDIO
    TITLE "00:38:15.88889"
    INDEX 01 38:15:67
  TRACK 167 AUDIO
    TITLE "00:38:31.45642"
    INDEX 01 38:31:34
  TRACK 168 AUDIO
    TITLE "00:38:44.82732"
    INDEX 01 38:44:62
  TRACK 169 AUDIO
    TITLE "00:38:59.88399"
    INDEX 01 38:59:66
  TRACK 170 AUDIO
    TITLE "00:39:13.95381"
    INDEX 01 39:13:72
  TRACK 171 AUDIO
    TITLE "00:39:28.00971"
    INDEX 01 39:28:01
  TRACK 172 AUDIO
    TITLE "00:39:41.58449"
    INDEX 01 39:41:44
  TRACK 173 AUDIO
    TITLE "00:39:55.09517"
    INDEX 01 39:55:07
  TRACK 174 AUDIO
    TITLE "00:40:08.24039"
    INDEX 01 40:08:18
  TRACK 175 AUDIO
    TITLE "00:40:20.83946"
    INDEX 01 40:20:63
  TRACK 176 AUDIO
    TITLE "00:40:34.36780"
    INDEX 01 40:34:28
  TRACK 177 AUDIO
    TITLE "00:40:46.93807"
    INDEX 01 40:46:70
  TRACK 178 AUDIO
    TITLE "00:41:01.45930"
    INDEX 01 41:01:34
  TRACK 179 AUDIO
    TITLE "00:41:15.28392"
    INDEX 01 41:15:21
  TRACK 180 AUDIO
    TITLE "00:41:30.08889"
    INDEX 01 41:30:07
  TRACK 181 AUDIO
    TITLE "00:41:45.41492"
    INDEX 01 41:45:31
  TRACK 182 AUDIO
    TITLE "00:41:59.29342"
    INDEX 01 41:59:22
  TRACK 183 AUDIO
    TITLE "00:42:13.08971"
    INDEX 01 42:13:07
  TRACK 184 AUDIO
    TITLE "00:42:27.03091"
    INDEX 01 42:27:02
  TRACK 185 AUDIO
    TITLE "00:42:39.72286"
    INDEX 01 42:39:54
  TRACK 186 AUDIO
    TITLE "00:42:53.07193"
    INDEX 01 42:53:05
  TRACK 187 AUDIO
    TITLE "00:43:07.33032"
    INDEX 01 43:07:25
  TRACK 188 AUDIO
    TITLE "00:43:21.17630"
    INDEX 01 43:21:13
  TRACK 189 AUDIO
    TITLE "00:43:34.95680"
    INDEX 01 43:34:72
  TRACK 190 AUDIO
    TITLE "00:43:48.53111"
    INDEX 01 43:48:40
  TRACK 191 AUDIO
    TITLE "00:44:03.20467"
    INDEX 01 44:03:15
  TRACK 192 AUDIO
    TITLE "00:44:16.72603"
    INDEX 01 44:16:54
  TRACK 193 AUDIO
    TITLE "00:44:30.80746"
    INDEX 01 44:30:61
  TRACK 194 AUDIO
    TITLE "00:44:49.36943"
    INDEX 01 44:49:28
  TRACK 195 AUDIO
    TITLE "00:45:03.24143"
    INDEX 01 45:03:18
  TRACK 196 AUDIO
    TITLE "00:45:15.90923"
    INDEX 01 45:15:68
  TRACK 197 AUDIO
    TITLE "00:45:32.23279"
    INDEX 01 45:32:17
  TRACK 198 AUDIO
    TITLE "00:45:45.67474"
    INDEX 01 45:45:51
  TRACK 199 AUDIO
    TITLE "00:45:58.84410"
    INDEX 01 45:58:63
  TRACK 200 AUDIO
    TITLE "00:46:11.92569"
    INDEX 01 46:11:69
  TRACK 201 AUDIO
    TITLE "00:46:25.19535"
    INDEX 01 46:25:15
  TRACK 202 AUDIO
    TITLE "00:46:40.06349"
    INDEX 01 46:40:05
  TRACK 203 AUDIO
    TITLE "00:46:52.92773"
    INDEX 01 46:52:70
  TRACK 204 AUDIO
    TITLE "00:47:06.66830"
    INDEX 01 47:06:50
  TRACK 205 AUDIO
    TITLE "00:47:21.18952"
    INDEX 01 47:21:14
  TRACK 206 AUDIO
    TITLE "00:47:35.17297"
    INDEX 01 47:35:13
  TRACK 207 AUDIO
    TITLE "00:47:47.79433"
    INDEX 01 47:47:60
  TRACK 208 AUDIO
    TITLE "00:48:00.88707"
    INDEX 01 48:00:67
  TRACK 209 AUDIO
    TITLE "00:48:18.05259"
    INDEX 01 48:18:04
  TRACK 210 AUDIO
    TITLE "00:48:31.88138"
    INDEX 01 48:31:66
  TRACK 211 AUDIO
    TITLE "00:48:45.55553"
    INDEX 01 48:45:42
  TRACK 212 AUDIO
    TITLE "00:48:59.79580"
    INDEX 01 48:59:60
  TRACK 213 AUDIO
    TITLE "00:49:12.87739"
    INDEX 01 49:12:66
  TRACK 214 AUDIO
    TITLE "00:49:29.59243"
    INDEX 01 49:29:44
  TRACK 215 AUDIO
    TITLE "00:49:43.68873"
    INDEX 01 49:43:52
  TRACK 216 AUDIO
    TITLE "00:49:57.73905"
    INDEX 01 49:57:55
  TRACK 217 AUDIO
    TITLE "00:50:11.01893"
    INDEX 01 50:11:01
  TRACK 218 AUDIO
    TITLE "00:50:24.32807"
    INDEX 01 50:24:25
  TRACK 219 AUDIO
    TITLE "00:50:39.55426"
    INDEX 01 50:39:42
  TRACK 220 AUDIO
    TITLE "00:50:55.19422"
    INDEX 01 50:55:15
  TRACK 221 AUDIO
    TITLE "00:51:08.30227"
    INDEX 01 51:08:23
  TRACK 222 AUDIO
    TITLE "00:51:21.07410"
    INDEX 01 51:21:06
  TRACK 223 AUDIO
    TITLE "00:51:33.62023"
    INDEX 01 51:33:47
  TRACK 224 AUDIO
    TITLE "00:51:46.20630"
    INDEX 01 51:46:15
  TRACK 225 AUDIO
    TITLE "00:51:58.73478"
    INDEX 01 51:58:55
  TRACK 226 AUDIO
    TITLE "00:52:11.92272"
    INDEX 01 52:11:69
  TRACK 227 AUDIO
    TITLE "00:52:24.66762"
    INDEX 01 52:24:50
  TRACK 228 AUDIO
    TITLE "00:52:37.34658"
    INDEX 01 52:37:26
  TRACK 229 AUDIO
    TITLE "00:52:49.85508"
    INDEX 01 52:49:64
  TRACK 230 AUDIO
    TITLE "00:53:02.62041"
    INDEX 01 53:02:47
  TRACK 231 AUDIO
    TITLE "00:53:17.25914"
    INDEX 01 53:17:19
  TRACK 232 AUDIO
    TITLE "00:53:31.78639"
    INDEX 01 53:31:59
  TRACK 233 AUDIO
    TITLE "00:53:47.99478"
    INDEX 01 53:48:00
  TRACK 234 AUDIO
    TITLE "00:54:03.36957"
    INDEX 01 54:03:28
  TRACK 235 AUDIO
    TITLE "00:54:16.83336"
    INDEX 01 54:16:63
  TRACK 236 AUDIO
    TITLE "00:54:29.48769"
    INDEX 01 54:29:37
  TRACK 237 AUDIO
    TITLE "00:54:42.87254"
    INDEX 01 54:42:65
  TRACK 238 AUDIO
    TITLE "00:54:56.39576"
    INDEX 01 54:56:30
  TRACK 239 AUDIO
    TITLE "00:55:10.50553"
    INDEX 01 55:10:38
  TRACK 240 AUDIO
    TITLE "00:55:23.92288"
    INDEX 01 55:23:69
  TRACK 241 AUDIO
    TITLE "00:55:37.63048"
    INDEX 01 55:37:47
  TRACK 242 AUDIO
    TITLE "00:55:50.46175"
    INDEX 01 55:50:35
  TRACK 243 AUDIO
    TITLE "00:56:04.58916"
    INDEX 01 56:04:44
  TRACK 244 AUDIO
    TITLE "00:56:18.29442"
    INDEX 01 56:18:22
  TRACK 245 AUDIO
    TITLE "00:56:32.28206"
    INDEX 01 56:32:21
  TRACK 246 AUDIO
    TITLE "00:56:44.81286"
    INDEX 01 56:44:61
  TRACK 247 AUDIO
    TITLE "00:56:58.74800"
    INDEX 01 56:58:56
  TRACK 248 AUDIO
    TITLE "00:57:13.25206"
    INDEX 01 57:13:19
  TRACK 249 AUDIO
    TITLE "00:57:28.59061"
    INDEX 01 57:28:44
  TRACK 250 AUDIO
    TITLE "00:57:42.21415"
    INDEX 01 57:42:16
  TRACK 251 AUDIO
    TITLE "00:57:57.70134"
    INDEX 01 57:57:53
  TRACK 252 AUDIO
    TITLE "00:58:13.25492"
    INDEX 01 58:13:19
  TRACK 253 AUDIO
    TITLE "00:58:25.66823"
    INDEX 01 58:25:50
  TRACK 254 AUDIO
    TITLE "00:58:39.30476"
    INDEX 01 58:39:23
  TRACK 255 AUDIO
    TITLE "00:58:52.15415"
    INDEX 01 58:52:12
  TRACK 256 AUDIO
    TITLE "00:59:06.33034"
    INDEX 01 59:06:25
  TRACK 257 AUDIO
    TITLE "00:59:23.14243"
    INDEX 01 59:23:11
  TRACK 258 AUDIO
    TITLE "00:59:35.87850"
    INDEX 01 59:35:66
  TRACK 259 AUDIO
    TITLE "00:59:50.13873"
    INDEX 01 59:50:10
  TRACK 260 AUDIO
    TITLE "01:00:02.65376"
    INDEX 01 60:02:49
  TRACK 261 AUDIO
    TITLE "01:00:14.99649"
    INDEX 01 60:15:00
  TRACK 262 AUDIO
    TITLE "01:00:27.81057"
    INDEX 01 60:27:61
  TRACK 263 AUDIO
    TITLE "01:00:41.04029"
    INDEX 01 60:41:03
  TRACK 264 AUDIO
    TITLE "01:00:58.02655"
    INDEX 01 60:58:02
  TRACK 265 AUDIO
    TITLE "01:01:11.92642"
    INDEX 01 61:11:69
  TRACK 266 AUDIO
    TITLE "01:01:24.44374"
    INDEX 01 61:24:33
  TRACK 267 AUDIO
    TITLE "01:01:38.81034"
    INDEX 01 61:38:61
  TRACK 268 AUDIO
    TITLE "01:01:53.89580"
    INDEX 01 61:53:67
  TRACK 269 AUDIO
    TITLE "01:02:06.96299"
    INDEX 01 62:06:72
  TRACK 270 AUDIO
    TITLE "01:02:21.96209"
    INDEX 01 62:21:72
  TRACK 271 AUDIO
    TITLE "01:02:37.52215"
    INDEX 01 62:37:39
  TRACK 272 AUDIO
    TITLE "01:02:52.68054"
    INDEX 01 62:52:51
  TRACK 273 AUDIO
    TITLE "01:03:07.14372"
    INDEX 01 63:07:11
  TRACK 274 AUDIO
    TITLE "01:03:19.74510"
    INDEX 01 63:19:56
  TRACK 275 AUDIO
    TITLE "01:03:32.41524"
    INDEX 01 63:32:31
  TRACK 276 AUDIO
    TITLE "01:03:46.35084"
    INDEX 01 63:46:26
  TRACK 277 AUDIO
    TITLE "01:04:00.10628"
    INDEX 01 64:00:08
  TRACK 278 AUDIO
    TITLE "01:04:13.48601"
    INDEX 01 64:13:36
  TRACK 279 AUDIO
    TITLE "01:04:27.68633"
    INDEX 01 64:27:51
  TRACK 280 AUDIO
    TITLE "01:04:42.11977"
    INDEX 01 64:42:09
  TRACK 281 AUDIO
    TITLE "01:04:55.80880"
    INDEX 01 64:55:61
  TRACK 282 AUDIO
    TITLE "01:05:09.66825"
    INDEX 01 65:09:50
  TRACK 283 AUDIO
    TITLE "01:05:22.04628"
    INDEX 01 65:22:03
  TRACK 284 AUDIO
    TITLE "01:05:37.31333"
    INDEX 01 65:37:24
  TRACK 285 AUDIO
    TITLE "01:05:51.49971"
    INDEX 01 65:51:37
  TRACK 286 AUDIO
    TITLE "01:06:04.03934"
    INDEX 01 66:04:03
  TRACK 287 AUDIO
    TITLE "01:06:18.05206"
    INDEX 01 66:18:04
  TRACK 288 AUDIO
    TITLE "01:06:30.69524"
    INDEX 01 66:30:52
  TRACK 289 AUDIO
    TITLE "01:06:44.29696"
    INDEX 01 66:44:22
  TRACK 290 AUDIO
    TITLE "01:06:57.32698"
    INDEX 01 66:57:25
  TRACK 291 AUDIO
    TITLE "01:07:09.86197"
    INDEX 01 67:09:65
  TRACK 292 AUDIO
    TITLE "01:07:22.43923"
    INDEX 01 67:22:33
  TRACK 293 AUDIO
    TITLE "01:07:35.53615"
    INDEX 01 67:35:40
  TRACK 294 AUDIO
    TITLE "01:07:48.41617"
    INDEX 01 67:48:31
  TRACK 295 AUDIO
    TITLE "01:08:02.18973"
    INDEX 01 68:02:14
  TRACK 296 AUDIO
    TITLE "01:08:19.38494"
    INDEX 01 68:19:29
  TRACK 297 AUDIO
    TITLE "01:08:32.11637"
    INDEX 01 68:32:09
  TRACK 298 AUDIO
    TITLE "01:08:47.59798"
    INDEX 01 68:47:45
  TRACK 299 AUDIO
    TITLE "01:09:02.40853"
    INDEX 01 69:02:31
  TRACK 300 AUDIO
    TITLE "01:09:16.08639"
    INDEX 01 69:16:06
  TRACK 301 AUDIO
    TITLE "01:09:31.12497"
    INDEX 01 69:31:09
  TRACK 302 AUDIO
    TITLE "01:09:44.64633"
    INDEX 01 69:44:48
  TRACK 303 AUDIO
    TITLE "01:09:58.56383"
    INDEX 01 69:58:42
  TRACK 304 AUDIO
    TITLE "01:10:11.05007"
    INDEX 01 70:11:04
  TRACK 305 AUDIO
    TITLE "01:10:24.25751"
    INDEX 01 70:24:19
  TRACK 306 AUDIO
    TITLE "01:10:37.80395"
    INDEX 01 70:37:60
  TRACK 307 AUDIO
    TITLE "01:10:51.05503"
    INDEX 01 70:51:04
  TRACK 308 AUDIO
    TITLE "01:11:04.71574"
    INDEX 01 71:04:54
  TRACK 309 AUDIO
    TITLE "01:11:18.73261"
    INDEX 01 71:18:55
  TRACK 310 AUDIO
    TITLE "01:11:31.55739"
    INDEX 01 71:31:42
  TRACK 311 AUDIO
    TITLE "01:11:44.43324"
    INDEX 01 71:44:32
  TRACK 312 AUDIO
    TITLE "01:11:58.33959"
    INDEX 01 71:58:25
  TRACK 313 AUDIO
    TITLE "01:12:13.84673"
    INDEX 01 72:13:64
  TRACK 314 AUDIO
    TITLE "01:12:26.38406"
    INDEX 01 72:26:29
  TRACK 315 AUDIO
    TITLE "01:12:38.92370"
    INDEX 01 72:38:69
  TRACK 316 AUDIO
    TITLE "01:12:52.05590"
    INDEX 01 72:52:04
  TRACK 317 AUDIO
    TITLE "01:13:04.83236"
    INDEX 01 73:04:62
  TRACK 318 AUDIO
    TITLE "01:13:17.48902"
    INDEX 01 73:17:37
  TRACK 319 AUDIO
    TITLE "01:13:31.18363"
    INDEX 01 73:31:14
  TRACK 320 AUDIO
    TITLE "01:13:46.10005"
    INDEX 01 73:46:08
  TRACK 321 AUDIO
    TITLE "01:13:58.88488"
    INDEX 01 73:58:66
  TRACK 322 AUDIO
    TITLE "01:14:12.24279"
    INDEX 01 74:12:18
  TRACK 323 AUDIO
    TITLE "01:14:24.72252"
    INDEX 01 74:24:54
  TRACK 324 AUDIO
    TITLE "01:14:37.80177"
    INDEX 01 74:37:60
  TRACK 325 AUDIO
    TITLE "01:14:52.51757"
    INDEX 01 74:52:39
  TRACK 326 AUDIO
    TITLE "01:15:05.49698"
    INDEX 01 75:05:37
  TRACK 327 AUDIO
    TITLE "01:15:18.94127"
    INDEX 01 75:18:71
  TRACK 328 AUDIO
    TITLE "01:15:36.73093"
    INDEX 01 75:36:55
  TRACK 329 AUDIO
    TITLE "01:15:51.21177"
    INDEX 01 75:51:16
  TRACK 330 AUDIO
    TITLE "01:16:04.85061"
    INDEX 01 76:04:64
  TRACK 331 AUDIO
    TITLE "01:16:19.34073"
    INDEX 01 76:19:26
  TRACK 332 AUDIO
    TITLE "01:16:33.20714"
    INDEX 01 76:33:16
  TRACK 333 AUDIO
    TITLE "01:16:46.23998"
    INDEX 01 76:46:18
  TRACK 334 AUDIO
    TITLE "01:17:01.03937"
    INDEX 01 77:01:03
  TRACK 335 AUDIO
    TITLE "01:17:13.70950"
    INDEX 01 77:13:53
  TRACK 336 AUDIO
    TITLE "01:17:27.21787"
    INDEX 01 77:27:16
  TRACK 337 AUDIO
    TITLE "01:17:40.80333"
    INDEX 01 77:40:60
  TRACK 338 AUDIO
    TITLE "01:17:53.58399"
    INDEX 01 77:53:44
  TRACK 339 AUDIO
    TITLE "01:18:08.52317"
    INDEX 01 78:08:39
  TRACK 340 AUDIO
    TITLE "01:18:22.86930"
    INDEX 01 78:22:65
  TRACK 341 AUDIO
    TITLE "01:18:37.26236"
    INDEX 01 78:37:20
  TRACK 342 AUDIO
    TITLE "01:18:50.17537"
    INDEX 01 78:50:13
  TRACK 343 AUDIO
    TITLE "01:19:03.60433"
    INDEX 01 79:03:45
  TRACK 344 AUDIO
    TITLE "01:19:18.22075"
    INDEX 01 79:18:17
  TRACK 345 AUDIO
    TITLE "01:19:31.51596"
    INDEX 01 79:31:39
  TRACK 346 AUDIO
    TITLE "01:19:47.26875"
    INDEX 01 79:47:20
  TRACK 347 AUDIO
    TITLE "01:20:03.58163"
    INDEX 01 80:03:44
  TRACK 348 AUDIO
    TITLE "01:20:17.70209"
    INDEX 01 80:17:53
  TRACK 349 AUDIO
    TITLE "01:20:31.17934"
    INDEX 01 80:31:13
  TRACK 350 AUDIO
    TITLE "01:20:45.64717"
    INDEX 01 80:45:49
  TRACK 351 AUDIO
    TITLE "01:20:58.26156"
    INDEX 01 80:58:20
  TRACK 352 AUDIO
    TITLE "01:21:11.83215"
    INDEX 01 81:11:62
  TRACK 353 AUDIO
    TITLE "01:21:26.26515"
    INDEX 01 81:26:20
  TRACK 354 AUDIO
    TITLE "01:21:41.61810"
    INDEX 01 81:41:46
  TRACK 355 AUDIO
    TITLE "01:21:57.01937"
    INDEX 01 81:57:01
  TRACK 356 AUDIO
    TITLE "01:22:12.12943"
    INDEX 01 82:12:10
  TRACK 357 AUDIO
    TITLE "01:22:25.09354"
    INDEX 01 82:25:07
  TRACK 358 AUDIO
    TITLE "01:22:37.95175"
    INDEX 01 82:37:71
  TRACK 359 AUDIO
    TITLE "01:22:50.53549"
    INDEX 01 82:50:40
  TRACK 360 AUDIO
    TITLE "01:23:03.99556"
    INDEX 01 83:04:00
  TRACK 361 AUDIO
    TITLE "01:23:17.93676"
    INDEX 01 83:17:70
  TRACK 362 AUDIO
    TITLE "01:23:31.88490"
    INDEX 01 83:31:66
  TRACK 363 AUDIO
    TITLE "01:23:44.39574"
    INDEX 01 83:44:30
  TRACK 364 AUDIO
    TITLE "01:23:57.25814"
    INDEX 01 83:57:19
  TRACK 365 AUDIO
    TITLE "01:24:11.48075"
    INDEX 01 84:11:36
  TRACK 366 AUDIO
    TITLE "01:24:24.88927"
    INDEX 01 84:24:67
  TRACK 367 AUDIO
    TITLE "01:24:37.52410"
    INDEX 01 84:37:39
  TRACK 368 AUDIO
    TITLE "01:24:52.19764"
    INDEX 01 84:52:15
  TRACK 369 AUDIO
    TITLE "01:25:05.55370"
    INDEX 01 85:05:42
  TRACK 370 AUDIO
    TITLE "01:25:20.27136"
    INDEX 01 85:20:20
  TRACK 371 AUDIO
    TITLE "01:25:33.40125"
    INDEX 01 85:33:30
  TRACK 372 AUDIO
    TITLE "01:25:46.33005"
    INDEX 01 85:46:25
  TRACK 373 AUDIO
    TITLE "01:26:00.89073"
    INDEX 01 86:00:67
  TRACK 374 AUDIO
    TITLE "01:26:13.35512"
    INDEX 01 86:13:27
  TRACK 375 AUDIO
    TITLE "01:26:25.94120"
    INDEX 01 86:25:71
  TRACK 376 AUDIO
    TITLE "01:26:39.95624"
    INDEX 01 86:39:72
  TRACK 377 AUDIO
    TITLE "01:26:52.68116"
    INDEX 01 86:52:51
  TRACK 378 AUDIO
    TITLE "01:27:06.56524"
    INDEX 01 87:06:42
  TRACK 379 AUDIO
    TITLE "01:27:21.05347"
    INDEX 01 87:21:04
  TRACK 380 AUDIO
    TITLE "01:27:33.74311"
    INDEX 01 87:33:56
  TRACK 381 AUDIO
    TITLE "01:27:47.68059"
    INDEX 01 87:47:51
  TRACK 382 AUDIO
    TITLE "01:28:01.07145"
    INDEX 01 88:01:05
  TRACK 383 AUDIO
    TITLE "01:28:14.17952"
    INDEX 01 88:14:13
  TRACK 384 AUDIO
    TITLE "01:28:28.31156"
    INDEX 01 88:28:23
  TRACK 385 AUDIO
    TITLE "01:28:42.02705"
    INDEX 01 88:42:02
  TRACK 386 AUDIO
    TITLE "01:28:54.52907"
    INDEX 01 88:54:40
  TRACK 387 AUDIO
    TITLE "01:29:07.22800"
    INDEX 01 89:07:17
  TRACK 388 AUDIO
    TITLE "01:29:20.34721"
    INDEX 01 89:20:26
  TRACK 389 AUDIO
    TITLE "01:29:34.21549"
    INDEX 01 89:34:16
  TRACK 390 AUDIO
    TITLE "01:29:48.56440"
    INDEX 01 89:48:42
  TRACK 391 AUDIO
    TITLE "01:30:01.06596"
    INDEX 01 90:01:05
  TRACK 392 AUDIO
    TITLE "01:30:13.54150"
    INDEX 01 90:13:41
  TRACK 393 AUDIO
    TITLE "01:30:28.49925"
    INDEX 01 90:28:37
  TRACK 394 AUDIO
    TITLE "01:30:41.59293"
    INDEX 01 90:41:44
  TRACK 395 AUDIO
    TITLE "01:30:56.22467"
    INDEX 01 90:56:17
  TRACK 396 AUDIO
    TITLE "01:31:08.68211"
    INDEX 01 91:08:51
  TRACK 397 AUDIO
    TITLE "01:31:23.05054"
    INDEX 01 91:23:04
  TRACK 398 AUDIO
    TITLE "01:31:36.16324"
    INDEX 01 91:36:12
  TRACK 399 AUDIO
    TITLE "01:31:51.20599"
    INDEX 01 91:51:15
  TRACK 400 AUDIO
    TITLE "01:32:12.54041"
    INDEX 01 92:12:41
  TRACK 401 AUDIO
    TITLE "01:32:25.55093"
    INDEX 01 92:25:41
  TRACK 402 AUDIO
    TITLE "01:32:38.28515"
    INDEX 01 92:38:21
  TRACK 403 AUDIO
    TITLE "01:32:53.51179"
    INDEX 01 92:53:38
  TRACK 404 AUDIO
    TITLE "01:33:06.32776"
    INDEX 01 93:06:25
  TRACK 405 AUDIO
    TITLE "01:33:20.36227"
    INDEX 01 93:20:27
  TRACK 406 AUDIO
    TITLE "01:33:35.55410"
    INDEX 01 93:35:42
  TRACK 407 AUDIO
    TITLE "01:33:49.13259"
    INDEX 01 93:49:10
  TRACK 408 AUDIO
    TITLE "01:34:03.64964"
    INDEX 01 94:03:49
  TRACK 409 AUDIO
    TITLE "01:34:20.18449"
    INDEX 01 94:20:14
  TRACK 410 AUDIO
    TITLE "01:34:32.77705"
    INDEX 01 94:32:58
  TRACK 411 AUDIO
    TITLE "01:34:48.08127"
    INDEX 01 94:48:06
  TRACK 412 AUDIO
    TITLE "01:35:01.54968"
    INDEX 01 95:01:41
  TRACK 413 AUDIO
    TITLE "01:35:14.87184"
    INDEX 01 95:14:65
  TRACK 414 AUDIO
    TITLE "01:35:27.90698"
    INDEX 01 95:27:68
  TRACK 415 AUDIO
    TITLE "01:35:41.68703"
    INDEX 01 95:41:52
  TRACK 416 AUDIO
    TITLE "01:35:57.75376"
    INDEX 01 95:57:57
  TRACK 417 AUDIO
    TITLE "01:36:11.50315"
    INDEX 01 96:11:38
  TRACK 418 AUDIO
    TITLE "01:36:26.43537"
    INDEX 01 96:26:33
  TRACK 419 AUDIO
    TITLE "01:36:39.85737"
    INDEX 01 96:39:64
  TRACK 420 AUDIO
    TITLE "01:36:54.07302"
    INDEX 01 96:54:05
  TRACK 421 AUDIO
    TITLE "01:37:08.59655"
    INDEX 01 97:08:45
  TRACK 422 AUDIO
    TITLE "01:37:23.78327"
    INDEX 01 97:23:59
  TRACK 423 AUDIO
    TITLE "01:37:38.50834"
    INDEX 01 97:38:38
  TRACK 424 AUDIO
    TITLE "01:37:51.90760"
    INDEX 01 97:51:68
  TRACK 425 AUDIO
    TITLE "01:38:04.73005"
    INDEX 01 98:04:55
  TRACK 426 AUDIO
    TITLE "01:38:17.96209"
    INDEX 01 98:17:72
  TRACK 427 AUDIO
    TITLE "01:38:30.75993"
    INDEX 01 98:30:57
  TRACK 428 AUDIO
    TITLE "01:38:43.27308"
    INDEX 01 98:43:20
  TRACK 429 AUDIO
    TITLE "01:38:55.83036"
    INDEX 01 98:55:62
  TRACK 430 AUDIO
    TITLE "01:39:08.75265"
    INDEX 01 99:08:56
  TRACK 431 AUDIO
    TITLE "01:39:21.43812"
    INDEX 01 99:21:33
  TRACK 432 AUDIO
    TITLE "01:39:34.45748"
    INDEX 01 99:34:34
  TRACK 433 AUDIO
    TITLE "01:39:48.61601"
    INDEX 01 99:48:46
  TRACK 434 AUDIO
    TITLE "01:40:01.75472"
    INDEX 01 100:01:57
  TRACK 435 AUDIO
    TITLE "01:40:14.52653"
    INDEX 01 100:14:39
  TRACK 436 AUDIO
    TITLE "01:40:28.90612"
    INDEX 01 100:28:68
  TRACK 437 AUDIO
    TITLE "01:40:41.37703"
    INDEX 01 100:41:28
  TRACK 438 AUDIO
    TITLE "01:40:58.08741"
    INDEX 01 100:58:07
  TRACK 439 AUDIO
    TITLE "01:41:10.49424"
    INDEX 01 101:10:37
  TRACK 440 AUDIO
    TITLE "01:41:23.36778"
    INDEX 01 101:23:28
  TRACK 441 AUDIO
    TITLE "01:41:38.62785"
    INDEX 01 101:38:47
  TRACK 442 AUDIO
    TITLE "01:41:52.08698"
    INDEX 01 101:52:07
  TRACK 443 AUDIO
    TITLE "01:42:05.46302"
    INDEX 01 102:05:35
  TRACK 444 AUDIO
    TITLE "01:42:19.88485"
    INDEX 01 102:19:66
  TRACK 445 AUDIO
    TITLE "01:42:34.23703"
    INDEX 01 102:34:18
  TRACK 446 AUDIO
    TITLE "01:42:48.62172"
    INDEX 01 102:48:47
  TRACK 447 AUDIO
    TITLE "01:43:01.46785"
    INDEX 01 103:01:35
  TRACK 448 AUDIO
    TITLE "01:43:16.89000"
    INDEX 01 103:16:67
  TRACK 449 AUDIO
    TITLE "01:43:32.04698"
    INDEX 01 103:32:04
  TRACK 450 AUDIO
    TITLE "01:43:46.27472"
    INDEX 01 103:46:21
  TRACK 451 AUDIO
    TITLE "01:44:00.85678"
    INDEX 01 104:00:64
  TRACK 452 AUDIO
    TITLE "01:44:15.38683"
    INDEX 01 104:15:29
  TRACK 453 AUDIO
    TITLE "01:44:29.94333"
    INDEX 01 104:29:71
  TRACK 454 AUDIO
    TITLE "01:44:42.71703"
    INDEX 01 104:42:54
  TRACK 455 AUDIO
    TITLE "01:44:58.08717"
    INDEX 01 104:58:07
  TRACK 456 AUDIO
    TITLE "01:45:11.29925"
    INDEX 01 105:11:22
  TRACK 457 AUDIO
    TITLE "01:45:25.07930"
    INDEX 01 105:25:06
  TRACK 458 AUDIO
    TITLE "01:45:41.12002"
    INDEX 01 105:41:09
  TRACK 459 AUDIO
    TITLE "01:45:53.84263"
    INDEX 01 105:53:63
  TRACK 460 AUDIO
    TITLE "01:46:07.94823"
    INDEX 01 106:07:71
  TRACK 461 AUDIO
    TITLE "01:46:23.26125"
    INDEX 01 106:23:20
  TRACK 462 AUDIO
    TITLE "01:46:37.97426"
    INDEX 01 106:37:73
  TRACK 463 AUDIO
    TITLE "01:46:51.99812"
    INDEX 01 106:52:00
  TRACK 464 AUDIO
    TITLE "01:47:05.91098"
    INDEX 01 107:05:68
  TRACK 465 AUDIO
    TITLE "01:47:20.46052"
    INDEX 01 107:20:35
  TRACK 466 AUDIO
    TITLE "01:47:33.15898"
    INDEX 01 107:33:12
  TRACK 467 AUDIO
    TITLE "01:47:46.72261"
    INDEX 01 107:46:54
  TRACK 468 AUDIO
    TITLE "01:47:59.30404"
    INDEX 01 107:59:23
  TRACK 469 AUDIO
    TITLE "01:48:11.96535"
    INDEX 01 108:11:72
  TRACK 470 AUDIO
    TITLE "01:48:25.15095"
    INDEX 01 108:25:11
  TRACK 471 AUDIO
    TITLE "01:48:38.85576"
    INDEX 01 108:38:64
  TRACK 472 AUDIO
    TITLE "01:48:52.23132"
    INDEX 01 108:52:17
  TRACK 473 AUDIO
    TITLE "01:49:07.75937"
    INDEX 01 109:07:57
  TRACK 474 AUDIO
    TITLE "01:49:20.60968"
    INDEX 01 109:20:46
  TRACK 475 AUDIO
    TITLE "01:49:33.35503"
    INDEX 01 109:33:27
  TRACK 476 AUDIO
    TITLE "01:49:46.77469"
    INDEX 01 109:46:58
  TRACK 477 AUDIO
    TITLE "01:50:01.45986"
    INDEX 01 110:01:34
  TRACK 478 AUDIO
    TITLE "01:50:15.01884"
    INDEX 01 110:15:01
  TRACK 479 AUDIO
    TITLE "01:50:28.79889"
    INDEX 01 110:28:60
  TRACK 480 AUDIO
    TITLE "01:50:43.19147"
    INDEX 01 110:43:14
  TRACK 481 AUDIO
    TITLE "01:50:56.45231"
    INDEX 01 110:56:34
  TRACK 482 AUDIO
    TITLE "01:51:10.74830"
    INDEX 01 111:10:56
  TRACK 483 AUDIO
    TITLE "01:51:23.88190"
    INDEX 01 111:23:66
  TRACK 484 AUDIO
    TITLE "01:51:37.28161"
    INDEX 01 111:37:21
  TRACK 485 AUDIO
    TITLE "01:51:51.33841"
    INDEX 01 111:51:25
  TRACK 486 AUDIO
    TITLE "01:52:06.54045"
    INDEX 01 112:06:41
  TRACK 487 AUDIO
    TITLE "01:52:23.19234"
    INDEX 01 112:23:14
  TRACK 488 AUDIO
    TITLE "01:52:37.21943"
    INDEX 01 112:37:16
  TRACK 489 AUDIO
    TITLE "01:52:50.13014"
    INDEX 01 112:50:10
  TRACK 490 AUDIO
    TITLE "01:53:02.57224"
    INDEX 01 113:02:43
  TRACK 491 AUDIO
    TITLE "01:53:15.05660"
    INDEX 01 113:15:04
  TRACK 492 AUDIO
    TITLE "01:53:28.80878"
    INDEX 01 113:28:61
  TRACK 493 AUDIO
    TITLE "01:53:46.08900"
    INDEX 01 113:46:07
  TRACK 494 AUDIO
    TITLE "01:53:59.44227"
    INDEX 01 113:59:33
  TRACK 495 AUDIO
    TITLE "01:54:12.09243"
    INDEX 01 114:12:07
  TRACK 496 AUDIO
    TITLE "01:54:28.34957"
    INDEX 01 114:28:26
  TRACK 497 AUDIO
    TITLE "01:54:41.64803"
    INDEX 01 114:41:49
  TRACK 498 AUDIO
    TITLE "01:54:56.63551"
    INDEX 01 114:56:48
  TRACK 499 AUDIO
    TITLE "01:55:09.57964"
    INDEX 01 115:09:43
  TRACK 500 AUDIO
    TITLE "01:55:24.85596"
    INDEX 01 115:24:64
  TRACK 501 AUDIO
    TITLE "01:55:40.31574"
    INDEX 01 115:40:24
  TRACK 502 AUDIO
    TITLE "01:55:53.64902"
    INDEX 01 115:53:49
  TRACK 503 AUDIO
    TITLE "01:56:06.33680"
    INDEX 01 116:06:25
  TRACK 504 AUDIO
    TITLE "01:56:19.13741"
    INDEX 01 116:19:10
  TRACK 505 AUDIO
    TITLE "01:56:32.79580"
    INDEX 01 116:32:60
  TRACK 506 AUDIO
    TITLE "01:56:46.75741"
    INDEX 01 116:46:57
  TRACK 507 AUDIO
    TITLE "01:56:59.21068"
    INDEX 01 116:59:16
  TRACK 508 AUDIO
    TITLE "01:57:14.80651"
    INDEX 01 117:14:60
  TRACK 509 AUDIO
    TITLE "01:57:27.25095"
    INDEX 01 117:27:19
  TRACK 510 AUDIO
    TITLE "01:57:40.88517"
    INDEX 01 117:40:66
  TRACK 511 AUDIO
    TITLE "01:57:55.04136"
    INDEX 01 117:55:03
  TRACK 512 AUDIO
    TITLE "01:58:08.73549"
    INDEX 01 118:08:55
  TRACK 513 AUDIO
    TITLE "01:58:22.62839"
    INDEX 01 118:22:47
  TRACK 514 AUDIO
    TITLE "01:58:40.50628"
    INDEX 01 118:40:38
  TRACK 515 AUDIO
    TITLE "01:58:53.21404"
    INDEX 01 118:53:16
  TRACK 516 AUDIO
    TITLE "01:59:07.77984"
    INDEX 01 119:07:58
  TRACK 517 AUDIO
    TITLE "01:59:24.06948"
    INDEX 01 119:24:05
  TRACK 518 AUDIO
    TITLE "01:59:39.33422"
    INDEX 01 119:39:25
  TRACK 519 AUDIO
    TITLE "01:59:52.41488"
    INDEX 01 119:52:31
  TRACK 520 AUDIO
    TITLE "02:00:06.48934"
    INDEX 01 120:06:37
  TRACK 521 AUDIO
    TITLE "02:00:19.51102"
    INDEX 01 120:19:38
  TRACK 522 AUDIO
    TITLE "02:00:32.22946"
    INDEX 01 120:32:17
  TRACK 523 AUDIO
    TITLE "02:00:44.91073"
    INDEX 01 120:44:68
  TRACK 524 AUDIO
    TITLE "02:00:59.82342"
    INDEX 01 120:59:62
  TRACK 525 AUDIO
    TITLE "02:01:16.30907"
    INDEX 01 121:16:23
  TRACK 526 AUDIO
    TITLE "02:01:30.89297"
    INDEX 01 121:30:67
  TRACK 527 AUDIO
    TITLE "02:01:43.51667"
    INDEX 01 121:43:39
  TRACK 528 AUDIO
    TITLE "02:01:57.17968"
    INDEX 01 121:57:13
  TRACK 529 AUDIO
    TITLE "02:02:13.10478"
    INDEX 01 122:13:08
  TRACK 530 AUDIO
    TITLE "02:02:26.90293"
    INDEX 01 122:26:68
  TRACK 531 AUDIO
    TITLE "02:02:39.78528"
    INDEX 01 122:39:59
  TRACK 532 AUDIO
    TITLE "02:02:54.05946"
    INDEX 01 122:54:04
  TRACK 533 AUDIO
    TITLE "02:03:09.58889"
    INDEX 01 123:09:44
  TRACK 534 AUDIO
    TITLE "02:03:23.55005"
    INDEX 01 123:23:41
  TRACK 535 AUDIO
    TITLE "02:03:37.02265"
    INDEX 01 123:37:02
  TRACK 536 AUDIO
    TITLE "02:03:50.37823"
    INDEX 01 123:50:28
  TRACK 537 AUDIO
    TITLE "02:04:03.76261"
    INDEX 01 124:03:57
  TRACK 538 AUDIO
    TITLE "02:04:18.63723"
    INDEX 01 124:18:48
  TRACK 539 AUDIO
    TITLE "02:04:31.65009"
    INDEX 01 124:31:49
  TRACK 540 AUDIO
    TITLE "02:04:45.89454"
    INDEX 01 124:45:67
  TRACK 541 AUDIO
    TITLE "02:04:59.72102"
    INDEX 01 124:59:54
  TRACK 542 AUDIO
    TITLE "02:05:13.48805"
    INDEX 01 125:13:37
  TRACK 543 AUDIO
    TITLE "02:05:25.97009"
    INDEX 01 125:25:73
  TRACK 544 AUDIO
    TITLE "02:05:38.53621"
    INDEX 01 125:38:40
  TRACK 545 AUDIO
    TITLE "02:05:53.26315"
    INDEX 01 125:53:20
  TRACK 546 AUDIO
    TITLE "02:06:06.27601"
    INDEX 01 126:06:21
  TRACK 547 AUDIO
    TITLE "02:06:19.17370"
    INDEX 01 126:19:13
  TRACK 548 AUDIO
    TITLE "02:06:34.71891"
    INDEX 01 126:34:54
  TRACK 549 AUDIO
    TITLE "02:06:48.44787"
    INDEX 01 126:48:34
  TRACK 550 AUDIO
    TITLE "02:07:03.01646"
    INDEX 01 127:03:01
  TRACK 551 AUDIO
    TITLE "02:07:19.57361"
    INDEX 01 127:19:43
  TRACK 552 AUDIO
    TITLE "02:07:33.38662"
    INDEX 01 127:33:29
  TRACK 553 AUDIO
    TITLE "02:07:48.86079"
    INDEX 01 127:48:65
  TRACK 554 AUDIO
    TITLE "02:08:03.25338"
    INDEX 01 128:03:19
  TRACK 555 AUDIO
    TITLE "02:08:17.53823"
    INDEX 01 128:17:40
  TRACK 556 AUDIO
    TITLE "02:08:31.16363"
    INDEX 01 128:31:12
  TRACK 557 AUDIO
    TITLE "02:08:45.67417"
    INDEX 01 128:45:51
  TRACK 558 AUDIO
    TITLE "02:08:59.83825"
    INDEX 01 128:59:63
  TRACK 559 AUDIO
    TITLE "02:09:13.24261"
    INDEX 01 129:13:18
  TRACK 560 AUDIO
    TITLE "02:09:25.70887"
    INDEX 01 129:25:53
  TRACK 561 AUDIO
    TITLE "02:09:38.18440"
    INDEX 01 129:38:14
  TRACK 562 AUDIO
    TITLE "02:09:51.41832"
    INDEX 01 129:51:31
  TRACK 563 AUDIO
    TITLE "02:10:05.75145"
    INDEX 01 130:05:56
  TRACK 564 AUDIO
    TITLE "02:10:18.98537"
    INDEX 01 130:18:74
  TRACK 565 AUDIO
    TITLE "02:10:31.59791"
    INDEX 01 130:31:45
  TRACK 566 AUDIO
    TITLE "02:10:46.69406"
    INDEX 01 130:46:52
  TRACK 567 AUDIO
    TITLE "02:10:59.96558"
    INDEX 01 130:59:72
  TRACK 568 AUDIO
    TITLE "02:11:13.80320"
    INDEX 01 131:13:60
  TRACK 569 AUDIO
    TITLE "02:11:26.83603"
    INDEX 01 131:26:63
  TRACK 570 AUDIO
    TITLE "02:11:39.98170"
    INDEX 01 131:39:74
  TRACK 571 AUDIO
    TITLE "02:11:53.97676"
    INDEX 01 131:53:73
  TRACK 572 AUDIO
    TITLE "02:12:07.35649"
    INDEX 01 132:07:27
  TRACK 573 AUDIO
    TITLE "02:12:21.62091"
    INDEX 01 132:21:47
  TRACK 574 AUDIO
    TITLE "02:12:34.85249"
    INDEX 01 132:34:64
  TRACK 575 AUDIO
    TITLE "02:12:48.27263"
    INDEX 01 132:48:20
  TRACK 576 AUDIO
    TITLE "02:13:02.15621"
    INDEX 01 133:02:12
  TRACK 577 AUDIO
    TITLE "02:13:16.81909"
    INDEX 01 133:16:61
  TRACK 578 AUDIO
    TITLE "02:13:29.85841"
    INDEX 01 133:29:64
  TRACK 579 AUDIO
    TITLE "02:13:43.78474"
    INDEX 01 133:43:59
  TRACK 580 AUDIO
    TITLE "02:13:58.87020"
    INDEX 01 133:58:65
  TRACK 581 AUDIO
    TITLE "02:14:12.45057"
    INDEX 01 134:12:34
  TRACK 582 AUDIO
    TITLE "02:14:25.62687"
    INDEX 01 134:25:47
  TRACK 583 AUDIO
    TITLE "02:14:40.67426"
    INDEX 01 134:40:51
  TRACK 584 AUDIO
    TITLE "02:14:56.12011"
    INDEX 01 134:56:09
  TRACK 585 AUDIO
    TITLE "02:15:09.16780"
    INDEX 01 135:09:13
  TRACK 586 AUDIO
    TITLE "02:15:22.72726"
    INDEX 01 135:22:55
  TRACK 587 AUDIO
    TITLE "02:15:36.00946"
    INDEX 01 135:36:01
  TRACK 588 AUDIO
    TITLE "02:15:51.16596"
    INDEX 01 135:51:12
  TRACK 589 AUDIO
    TITLE "02:16:05.05887"
    INDEX 01 136:05:04
  TRACK 590 AUDIO
    TITLE "02:16:18.51336"
    INDEX 01 136:18:39
  TRACK 591 AUDIO
    TITLE "02:16:32.96585"
    INDEX 01 136:32:72
  TRACK 592 AUDIO
    TITLE "02:16:46.06277"
    INDEX 01 136:46:05
  TRACK 593 AUDIO
    TITLE "02:17:03.14746"
    INDEX 01 137:03:11
  TRACK 594 AUDIO
    TITLE "02:17:16.13757"
    INDEX 01 137:16:10
  TRACK 595 AUDIO
    TITLE "02:17:28.73896"
    INDEX 01 137:28:55
  TRACK 596 AUDIO
    TITLE "02:17:42.83805"
    INDEX 01 137:42:63
  TRACK 597 AUDIO
    TITLE "02:17:56.35941"
    INDEX 01 137:56:27
  TRACK 598 AUDIO
    TITLE "02:18:11.27585"
    INDEX 01 138:11:21
  TRACK 599 AUDIO
    TITLE "02:18:28.90855"
    INDEX 01 138:28:68
  TRACK 600 AUDIO
    TITLE "02:18:43.14927"
    INDEX 01 138:43:11
  TRACK 601 AUDIO
    TITLE "02:18:58.40193"
    INDEX 01 138:58:30
  TRACK 602 AUDIO
    TITLE "02:19:11.56941"
    INDEX 01 139:11:43
  TRACK 603 AUDIO
    TITLE "02:19:24.52701"
    INDEX 01 139:24:40
  TRACK 604 AUDIO
    TITLE "02:19:41.15057"
    INDEX 01 139:41:11
  TRACK 605 AUDIO
    TITLE "02:19:55.98385"
    INDEX 01 139:55:74
  TRACK 606 AUDIO
    TITLE "02:20:11.83420"
    INDEX 01 140:11:63
  TRACK 607 AUDIO
    TITLE "02:20:27.10077"
    INDEX 01 140:27:08
  TRACK 608 AUDIO
    TITLE "02:20:42.48671"
    INDEX 01 140:42:37
  TRACK 609 AUDIO
    TITLE "02:20:56.92946"
    INDEX 01 140:56:70
  TRACK 610 AUDIO
    TITLE "02:21:10.10624"
    INDEX 01 141:10:08
  TRACK 611 AUDIO
    TITLE "02:21:22.65424"
    INDEX 01 141:22:49
  TRACK 612 AUDIO
    TITLE "02:21:35.49478"
    INDEX 01 141:35:37
  TRACK 613 AUDIO
    TITLE "02:21:48.75751"
    INDEX 01 141:48:57
  TRACK 614 AUDIO
    TITLE "02:22:03.17238"
    INDEX 01 142:03:13
  TRACK 615 AUDIO
    TITLE "02:22:17.50785"
    INDEX 01 142:17:38
  TRACK 616 AUDIO
    TITLE "02:22:30.52719"
    INDEX 01 142:30:40
  TRACK 617 AUDIO
    TITLE "02:22:45.75941"
    INDEX 01 142:45:57
  TRACK 618 AUDIO
    TITLE "02:22:59.38760"
    INDEX 01 142:59:29
  TRACK 619 AUDIO
    TITLE "02:23:12.86066"
    INDEX 01 143:12:65
  TRACK 620 AUDIO
    TITLE "02:23:26.34211"
    INDEX 01 143:26:26
  TRACK 621 AUDIO
    TITLE "02:23:40.37896"
    INDEX 01 143:40:28
  TRACK 622 AUDIO
    TITLE "02:23:53.96442"
    INDEX 01 143:53:72
  TRACK 623 AUDIO
    TITLE "02:24:06.98424"
    INDEX 01 144:06:74
  TRACK 624 AUDIO
    TITLE "02:24:20.48379"
    INDEX 01 144:20:36
  TRACK 625 AUDIO
    TITLE "02:24:34.25268"
    INDEX 01 144:34:19
  TRACK 626 AUDIO
    TITLE "02:24:46.90701"
    INDEX 01 144:46:68
  TRACK 627 AUDIO
    TITLE "02:24:59.77404"
    INDEX 01 144:59:58
  TRACK 628 AUDIO
    TITLE "02:25:14.79077"
    INDEX 01 145:14:59
  TRACK 629 AUDIO
    TITLE "02:25:28.74079"
    INDEX 01 145:28:56
  TRACK 630 AUDIO
    TITLE "02:25:41.65426"
    INDEX 01 145:41:49
  TRACK 631 AUDIO
    TITLE "02:25:54.87934"
    INDEX 01 145:54:66
  TRACK 632 AUDIO
    TITLE "02:26:09.39825"
    INDEX 01 146:09:30
  TRACK 633 AUDIO
    TITLE "02:26:23.12535"
    INDEX 01 146:23:09
  TRACK 634 AUDIO
    TITLE "02:26:36.07179"
    INDEX 01 146:36:05
  TRACK 635 AUDIO
    TITLE "02:26:49.87830"
    INDEX 01 146:49:66
  TRACK 636 AUDIO
    TITLE "02:27:02.41794"
    INDEX 01 147:02:31
  TRACK 637 AUDIO
    TITLE "02:27:14.97522"
    INDEX 01 147:14:73
  TRACK 638 AUDIO
    TITLE "02:27:28.44134"
    INDEX 01 147:28:33
  TRACK 639 AUDIO
    TITLE "02:27:42.51812"
    INDEX 01 147:42:39
  TRACK 640 AUDIO
    TITLE "02:27:55.26766"
    INDEX 01 147:55:20
  TRACK 641 AUDIO
    TITLE "02:28:08.56612"
    INDEX 01 148:08:42
  TRACK 642 AUDIO
    TITLE "02:28:22.39678"
    INDEX 01 148:22:30
  TRACK 643 AUDIO
    TITLE "02:28:36.59061"
    INDEX 01 148:36:44
  TRACK 644 AUDIO
    TITLE "02:28:53.30565"
    INDEX 01 148:53:23
  TRACK 645 AUDIO
    TITLE "02:29:06.47082"
    INDEX 01 149:06:35
  TRACK 646 AUDIO
    TITLE "02:29:19.72934"
    INDEX 01 149:19:55
  TRACK 647 AUDIO
    TITLE "02:29:32.54948"
    INDEX 01 149:32:41
  TRACK 648 AUDIO
    TITLE "02:29:45.87395"
    INDEX 01 149:45:66
  TRACK 649 AUDIO
    TITLE "02:29:59.40460"
    INDEX 01 149:59:30
  TRACK 650 AUDIO
    TITLE "02:30:15.68358"
    INDEX 01 150:15:51
  TRACK 651 AUDIO
    TITLE "02:30:29.45712"
    INDEX 01 150:29:34
  TRACK 652 AUDIO
    TITLE "02:30:44.14830"
    INDEX 01 150:44:11
  TRACK 653 AUDIO
    TITLE "02:30:57.71658"
    INDEX 01 150:57:54
  TRACK 654 AUDIO
    TITLE "02:31:13.66397"
    INDEX 01 151:13:50
  TRACK 655 AUDIO
    TITLE "02:31:28.42900"
    INDEX 01 151:28:32
  TRACK 656 AUDIO
    TITLE "02:31:43.14807"
    INDEX 01 151:43:11
  TRACK 657 AUDIO
    TITLE "02:31:58.34499"
    INDEX 01 151:58:26
  TRACK 658 AUDIO
    TITLE "02:32:11.54871"
    INDEX 01 152:11:41
  TRACK 659 AUDIO
    TITLE "02:32:26.87240"
    INDEX 01 152:26:65
  TRACK 660 AUDIO
    TITLE "02:32:42.11995"
    INDEX 01 152:42:09
  TRACK 661 AUDIO
    TITLE "02:32:57.80079"
    INDEX 01 152:57:60
  TRACK 662 AUDIO
    TITLE "02:33:12.05265"
    INDEX 01 153:12:04
  TRACK 663 AUDIO
    TITLE "02:33:25.35018"
    INDEX 01 153:25:26
  TRACK 664 AUDIO
    TITLE "02:33:38.47170"
    INDEX 01 153:38:35
  TRACK 665 AUDIO
    TITLE "02:33:53.28224"
    INDEX 01 153:53:21
  TRACK 666 AUDIO
    TITLE "02:34:07.31726"
    INDEX 01 154:07:24
  TRACK 667 AUDIO
    TITLE "02:34:20.76061"
    INDEX 01 154:20:57
  TRACK 668 AUDIO
    TITLE "02:34:33.10333"
    INDEX 01 154:33:08
  TRACK 669 AUDIO
    TITLE "02:34:47.30830"
    INDEX 01 154:47:23
  TRACK 670 AUDIO
    TITLE "02:35:00.56449"
    INDEX 01 155:00:42
  TRACK 671 AUDIO
    TITLE "02:35:13.73664"
    INDEX 01 155:13:55
  TRACK 672 AUDIO
    TITLE "02:35:26.74252"
    INDEX 01 155:26:56
  TRACK 673 AUDIO
    TITLE "02:35:40.96980"
    INDEX 01 155:40:73
  TRACK 674 AUDIO
    TITLE "02:35:53.81639"
    INDEX 01 155:53:61
  TRACK 675 AUDIO
    TITLE "02:36:07.18125"
    INDEX 01 156:07:14
  TRACK 676 AUDIO
    TITLE "02:36:20.93297"
    INDEX 01 156:20:70
  TRACK 677 AUDIO
    TITLE "02:36:38.12494"
    INDEX 01 156:38:09
  TRACK 678 AUDIO
    TITLE "02:36:52.54401"
    INDEX 01 156:52:41
  TRACK 679 AUDIO
    TITLE "02:37:11.28662"
    INDEX 01 157:11:21
  TRACK 680 AUDIO
    TITLE "02:37:29.90569"
    INDEX 01 157:29:68
  TRACK 681 AUDIO
    TITLE "02:37:43.10662"
    INDEX 01 157:43:08
  TRACK 682 AUDIO
    TITLE "02:37:58.75728"
    INDEX 01 157:58:57
  TRACK 683 AUDIO
    TITLE "02:38:12.09522"
    INDEX 01 158:12:07
  TRACK 684 AUDIO
    TITLE "02:38:34.73878"
    INDEX 01 158:34:55
  TRACK 685 AUDIO
    TITLE "02:38:48.05256"
    INDEX 01 158:48:04
  TRACK 686 AUDIO
    TITLE "02:39:06.18912"
    INDEX 01 159:06:14
  TRACK 687 AUDIO
    TITLE "02:39:23.47444"
    INDEX 01 159:23:36
  TRACK 688 AUDIO
    TITLE "02:39:36.33916"
    INDEX 01 159:36:25
  TRACK 689 AUDIO
    TITLE "02:39:52.80204"
    INDEX 01 159:52:60
  TRACK 690 AUDIO
    TITLE "02:40:07.20345"
    INDEX 01 160:07:15
  TRACK 691 AUDIO
    TITLE "02:40:23.76107"
    INDEX 01 160:23:57
  TRACK 692 AUDIO
    TITLE "02:40:36.59279"
    INDEX 01 160:36:44
  TRACK 693 AUDIO
    TITLE "02:40:53.00878"
    INDEX 01 160:53:01
  TRACK 694 AUDIO
    TITLE "02:41:05.95102"
    INDEX 01 161:05:71
  TRACK 695 AUDIO
    TITLE "02:41:18.97689"
    INDEX 01 161:18:73
  TRACK 696 AUDIO
    TITLE "02:41:32.29299"
    INDEX 01 161:32:22
  TRACK 697 AUDIO
    TITLE "02:41:45.97365"
    INDEX 01 161:45:73
  TRACK 698 AUDIO
    TITLE "02:42:00.22041"
    INDEX 01 162:00:17
  TRACK 699 AUDIO
    TITLE "02:42:12.79302"
    INDEX 01 162:12:59
